PathFileType	4	(X/Y/Z)	C:/Users/opensim2020/Desktop/walking_exp_matlab/subject06_walking12_straigt_04.trc																																																																																																																																														
DataRate	CameraRate	NumFrames	NumMarkers	Units	OrigDataRate	OrigDataStartFrame	OrigNumFrames																																																																																																																																										
100	100	5	48	mm	100	2901	181																																																																																																																																										
Frame#	Time	LFHD			RFHD			LBHD			RBHD			C7			T10			CLAV			STRN			RBAK			LSHO			LUPA			LELB			LFRM			LWRA			LWRB			LFIN			RSHO			RUPA			RELB			RFRM			RWRA			RWRB			RFIN			LASI			RASI			LPSI			RPSI			LTHI			LKNE			LTIB			LANK			LHEE			LTOE			RTHI			RKNE			RTIB			RANK			RHEE			RTOE			*39			*40			*41			*42			*43			*44			*45			*46			*47		
		X1	Y1	Z1	X2	Y2	Z2	X3	Y3	Z3	X4	Y4	Z4	X5	Y5	Z5	X6	Y6	Z6	X7	Y7	Z7	X8	Y8	Z8	X9	Y9	Z9	X10	Y10	Z10	X11	Y11	Z11	X12	Y12	Z12	X13	Y13	Z13	X14	Y14	Z14	X15	Y15	Z15	X16	Y16	Z16	X17	Y17	Z17	X18	Y18	Z18	X19	Y19	Z19	X20	Y20	Z20	X21	Y21	Z21	X22	Y22	Z22	X23	Y23	Z23	X24	Y24	Z24	X25	Y25	Z25	X26	Y26	Z26	X27	Y27	Z27	X28	Y28	Z28	X29	Y29	Z29	X30	Y30	Z30	X31	Y31	Z31	X32	Y32	Z32	X33	Y33	Z33	X34	Y34	Z34	X35	Y35	Z35	X36	Y36	Z36	X37	Y37	Z37	X38	Y38	Z38	X39	Y39	Z39	X40	Y40	Z40	X41	Y41	Z41	X42	Y42	Z42	X43	Y43	Z43	X44	Y44	Z44	X45	Y45	Z45	X46	Y46	Z46	X47	Y47	Z47	X48	Y48	Z48
																																																																																																																																																	
136	1.35	-1511.40381	1652.83264	-281.17603	-1380.15771	1637.26636	-271.24588	-1523.49658	1596.73962	-148.59206	-1394.80872	1587.19397	-140.19078	-1467.3866	1437.13635	-143.38515	-1455.69653	1107.33643	-115.20715	-1462.32068	1360.88477	-254.22961	-1472.90906	1185.98376	-296.93661	-1394.22705	1265.17163	-71.6802	-1624.8158	1395.77075	-203.79846	-1707.50745	1203.26538	-242.61293	-1728.72937	1096.80615	-274.53998	-1741.5564	1007.27026	-392.95734	-1685.5376	981.45697	-512.16296	-1723.90784	930.17963	-482.4826	-1717.89075	914.53992	-570.75238	-1302.60437	1393.35913	-203.58186	-1220.39502	1210.32654	-119.93183	-1209.46985	1087.39014	-103.63217	-1191.93823	967.7757	-87.16104	-1217.15222	817.57825	-112.30397	-1183.85181	833.05487	-55.43187	-1179.63696	749.37158	-69.9016	-1576.36682	945.36969	-285.66895	-1354.76746	951.42505	-299.63278	-1534.83521	976.91907	-129.66409	-1366.43921	975.51984	-148.04124	-1621.65979	640.41968	-170.4377	-1594.82581	479.52911	-132.31354	-1582.53552	254.85698	-0.95521	-1533.57092	99.96476	73.17549	-1490.95166	100.63612	118.86279	-1523.99536	38.38715	-56.23638	-1287.87976	624.01257	-307.11078	-1320.06689	509.38126	-353.54282	-1321.73669	253.56815	-399.69073	-1363.86169	76.89388	-464.27432	-1414.35291	43.61007	-441.495	-1357.16724	84.50487	-622.84039	-1458.39966	1688.02991	-176.17166	NaN	NaN	NaN	NaN	NaN	NaN	NaN	NaN	NaN	NaN	NaN	NaN	NaN	NaN	NaN	NaN	NaN	NaN	NaN	NaN	NaN	NaN	NaN	NaN
137	1.36	-1510.29712	1652.36243	-290.87793	-1379.08447	1636.77759	-280.99518	-1522.38684	1595.9834	-158.37669	-1393.78345	1586.39697	-150.00446	-1466.18396	1436.28894	-153.67368	-1454.95032	1106.52954	-126.90239	-1461.21875	1360.39844	-264.69855	-1471.89526	1185.69031	-308.2572	-1393.29285	1264.2511	-82.61298	-1623.78149	1395.20361	-214.00987	-1706.0188	1202.42358	-252.37148	-1727.11499	1095.83569	-283.57166	-1739.94507	1007.60193	-402.35239	-1684.63977	983.72919	-522.29456	-1722.55115	931.86273	-493.19528	-1716.74463	917.41376	-581.79327	-1301.47949	1392.75879	-214.11403	-1219.3772	1209.88977	-130.16316	-1208.59351	1086.94519	-113.56272	-1191.15601	967.38312	-96.86319	-1216.66748	817.16168	-121.62266	-1183.28149	832.71106	-64.7206	-1179.40833	748.94312	-78.92911	-1575.57764	944.47571	-297.26279	-1353.79236	950.95172	-311.7919	-1533.828	976.25977	-141.57605	-1365.63147	975.09918	-160.22289	-1620.9375	640.07159	-179.76889	-1594.47998	479.58029	-140.15829	-1582.63428	256.91861	-5.23625	-1534.23364	103.02671	71.34948	-1491.54333	104.53664	117.12646	-1524.12427	38.3672	-56.81295	-1288.29407	624.37292	-320.27313	-1321.06335	510.00214	-366.81461	-1323.04712	251.99873	-408.19431	-1366.05432	73.9165	-467.50613	-1416.18457	41.21417	-443.69412	-1359.88892	79.47527	-625.53577	-1457.27307	1687.31799	-185.7798	NaN	NaN	NaN	NaN	NaN	NaN	NaN	NaN	NaN	NaN	NaN	NaN	NaN	NaN	NaN	NaN	NaN	NaN	NaN	NaN	NaN	NaN	NaN	NaN
138	1.37	-1509.20923	1651.99695	-300.54327	-1377.95862	1636.31787	-290.79529	-1521.22937	1595.20239	-168.14676	-1392.56738	1585.54663	-159.90714	-1465.02881	1435.47925	-163.84366	-1453.99719	1105.72888	-138.78011	-1459.9281	1359.93457	-275.29303	-1470.73193	1185.34534	-319.67981	-1392.38599	1263.43372	-93.63886	-1622.42249	1394.39526	-224.40436	-1704.51257	1201.56702	-262.15356	-1725.40979	1094.87146	-292.45212	-1738.88354	1007.66504	-411.83743	-1683.73743	985.49536	-532.13239	-1721.34802	933.03271	-503.4812	-1715.64966	919.60956	-592.26398	-1300.27026	1392.15088	-224.60687	-1218.30432	1209.2959	-140.68291	-1207.8103	1086.39038	-123.86678	-1190.52502	966.88062	-106.74426	-1216.24268	816.54608	-130.98212	-1182.78027	832.1825	-74.24122	-1179.15417	748.32477	-88.16187	-1574.70935	943.69696	-309.03253	-1352.83472	950.7066	-324.33389	-1532.77161	975.78748	-153.73758	-1364.69043	974.80206	-172.87358	-1620.14478	639.82855	-189.17332	-1594.07458	479.60547	-148.28117	-1582.60168	259.15472	-9.73793	-1534.91309	106.32481	69.11845	-1492.16626	108.74156	114.91005	-1524.12915	38.41179	-57.17578	-1289.3844	625.05157	-334.20761	-1322.73767	510.99701	-380.0538	-1324.41467	250.04837	-415.45276	-1367.79504	71.144	-469.30142	-1417.97852	38.66982	-444.57031	-1362.74792	73.94979	-626.79492	-1456.13049	1686.63135	-195.28804	NaN	NaN	NaN	NaN	NaN	NaN	NaN	NaN	NaN	NaN	NaN	NaN	NaN	NaN	NaN	NaN	NaN	NaN	NaN	NaN	NaN	NaN	NaN	NaN
139	1.38	-1508.07544	1651.65955	-310.19522	-1376.78931	1636.00146	-300.50754	-1519.9386	1594.43909	-177.98578	-1391.28796	1584.80139	-169.76544	-1463.76404	1434.68237	-174.0822	-1453.005	1104.88257	-151.14725	-1458.58484	1359.63318	-286.06683	-1469.4845	1185.2251	-331.31674	-1391.44153	1262.47107	-104.74789	-1621.24524	1393.92419	-234.7018	-1702.96667	1200.6709	-271.89194	-1723.70996	1093.84802	-301.22946	-1737.47339	1007.38879	-420.87674	-1682.82544	986.58643	-541.60547	-1720.06824	933.7522	-513.28204	-1714.59937	921.07648	-602.23273	-1298.94275	1391.60327	-235.15057	-1217.2301	1208.63647	-151.27762	-1207.04199	1085.70178	-134.46704	-1189.90222	966.16052	-117.0398	-1216.10217	815.62988	-140.55539	-1182.34082	831.6217	-84.11627	-1178.9021	747.54535	-97.80434	-1573.85339	943.4776	-320.73993	-1351.93591	950.52325	-337.04489	-1531.66443	975.6228	-165.71469	-1363.14648	974.86133	-185.54066	-1619.23291	639.58356	-198.71977	-1593.52612	479.56726	-156.8333	-1582.36218	261.54199	-14.50422	-1535.07751	109.85963	66.98663	-1492.61621	113.20712	112.29313	-1524.09741	38.41504	-57.50716	-1290.82422	625.66748	-348.01151	-1325.07788	511.99399	-393.23578	-1326.53845	248.59705	-422.22018	-1369.73169	70.12446	-471.86362	-1420.40686	40.75391	-446.7984	-1363.9408	66.22124	-630.18207	-1454.93103	1685.97791	-204.78998	NaN	NaN	NaN	NaN	NaN	NaN	NaN	NaN	NaN	NaN	NaN	NaN	NaN	NaN	NaN	NaN	NaN	NaN	NaN	NaN	NaN	NaN	NaN	NaN
140	1.39	-1506.8811	1652.00134	-319.8349	-1375.5061	1636.2937	-310.26224	-1518.58057	1594.05237	-187.96805	-1390.08643	1584.34204	-179.79141	-1462.27051	1434.27356	-184.28888	-1451.92725	1104.26343	-163.87921	-1457.23511	1359.84143	-296.91162	-1468.22559	1185.59839	-342.98538	-1390.37195	1261.3656	-115.8082	-1619.97827	1393.38379	-245.09013	-1701.41357	1199.69482	-281.54025	-1722.00439	1092.75049	-309.91132	-1736.15576	1006.88593	-429.75995	-1681.9281	987.06818	-550.77887	-1718.83252	933.88232	-522.61127	-1713.62	921.8559	-611.74121	-1297.43469	1391.25122	-245.73843	-1216.12756	1207.83337	-162.17149	-1206.27881	1084.88879	-145.3864	-1189.41272	965.36591	-127.69553	-1216.05566	814.64911	-150.50093	-1182.04846	830.93152	-94.25549	-1178.76428	746.86633	-107.70269	-1573.23535	943.05133	-332.88312	-1351.22168	950.58374	-349.79718	-1530.54187	975.62341	-177.75275	-1361.66748	975.47076	-198.2693	-1618.05896	639.30389	-208.62137	-1592.46436	479.56497	-165.91051	-1581.91724	264.17606	-19.87043	-1535.54492	113.75258	64.20963	-1493.15991	118.22333	109.36366	-1524.05981	38.4981	-58.01096	-1291.89026	626.74323	-361.63742	-1326.44727	512.83868	-405.29663	-1326.73462	248.91751	-430.20209	-1368.13	71.87681	-478.52267	-1418.07581	42.93864	-451.00052	-1363.35742	61.62824	-635.56464	-1453.71594	1685.69629	-214.29773	NaN	NaN	NaN	NaN	NaN	NaN	NaN	NaN	NaN	NaN	NaN	NaN	NaN	NaN	NaN	NaN	NaN	NaN	NaN	NaN	NaN	NaN	NaN	NaN
